<svg id="图层_1" data-name="图层 1" xmlns="http://www.w3.org/2000/svg" viewBox="0 0 109.65 43.06"><defs><style>.cls-1,.cls-2{fill:#fff;}.cls-2{font-size:36px;font-family:slideyouran-Regular, slideyouran;letter-spacing:0.06em;}</style></defs><title>logo02</title><path class="cls-1" d="M21,6.26,10.16,24.08H21.34v4H5.09V24.4L16,6.57H5.41v-4H21Z" transform="translate(-5.09 12.18)"/><path class="cls-1" d="M31.5,27.25A7.34,7.34,0,0,1,28.37,24a11.28,11.28,0,0,1-1.07-5.14V2.55h4.2V19a5.42,5.42,0,0,0,1.29,3.87,4.79,4.79,0,0,0,3.65,1.37,4.83,4.83,0,0,0,3.67-1.37A5.38,5.38,0,0,0,41.41,19V2.55h4.2V18.86A11.28,11.28,0,0,1,44.53,24a7.42,7.42,0,0,1-3.14,3.25,10.17,10.17,0,0,1-5,1.12A10.13,10.13,0,0,1,31.5,27.25Z" transform="translate(-5.09 12.18)"/><path class="cls-1" d="M82.67,2.55h4.85V28.11H83.58V8.61l.18,1.13L78.17,24.91H74.79L69.2,10.09l.18-1.48v19.5H65.44V2.55h4.85L76.48,19.6Z" transform="translate(-5.09 12.18)"/><path class="cls-1" d="M95.76,2.53H100V28.11h-4.2Zm1.74,11h8.81a2.81,2.81,0,0,0,1.56-.43,2.72,2.72,0,0,0,1-1.22A4.41,4.41,0,0,0,109.3,10a4.18,4.18,0,0,0-.37-1.83,2.77,2.77,0,0,0-2.62-1.65H97.5v-4h8.93a7.54,7.54,0,0,1,3.8.93,6.4,6.4,0,0,1,2.54,2.64,8.3,8.3,0,0,1,.91,3.94,8.34,8.34,0,0,1-.91,4,6.36,6.36,0,0,1-2.55,2.64,7.55,7.55,0,0,1-3.79.93H97.5Zm6.17,3.24L108,16l6.72,12.15h-5Z" transform="translate(-5.09 12.18)"/><text class="cls-2" transform="translate(40.62 28.8)">.</text></svg>