<?xml version="1.0" encoding="utf-8"?>
<!-- Generator: Adobe Illustrator 24.0.0, SVG Export Plug-In . SVG Version: 6.00 Build 0)  -->
<svg version="1.1" id="图层_1" xmlns="http://www.w3.org/2000/svg" xmlns:xlink="http://www.w3.org/1999/xlink" x="0px" y="0px"
	 viewBox="0 0 115.7 30.1" style="enable-background:new 0 0 115.7 30.1;" xml:space="preserve">
<style type="text/css">
	.st0{display:none;fill:#FFFFFF;}
	.st1{fill:#FFFFFF;}
	.st2{font-family:'slideyouran-Regular';}
	.st3{font-size:36px;}
	.st4{letter-spacing:2;}
</style>
<path id="logo" class="st0" d="M12.2,22.2l-7.1-9.3v9.3H0V1.1h5.1v9.2l7-9.2h6L10,11.5l8.5,10.7H12.2z M19.9,13.8
	c0-1.6,0.3-3.1,1-4.5c0.6-1.2,1.5-2.3,2.7-3c1.1-0.7,2.4-1.1,3.8-1c1.1,0,2.1,0.2,3.1,0.7c0.8,0.4,1.6,1.1,2.1,1.9V5.5h5.1v16.7
	h-5.1v-2.4c-0.5,0.8-1.2,1.4-2.1,1.9c-1,0.5-2,0.7-3.1,0.7c-1.3,0-2.6-0.4-3.7-1.1c-1.1-0.7-2.1-1.8-2.7-3
	C20.2,16.9,19.9,15.4,19.9,13.8z M32.4,13.8c0.1-1.1-0.3-2.2-1.1-3c-0.7-0.7-1.6-1.1-2.6-1.1c-1,0-1.9,0.4-2.6,1.1
	c-0.7,0.8-1.1,1.9-1.1,3c-0.1,1.1,0.3,2.2,1.1,3c0.7,0.7,1.6,1.1,2.6,1.1c1,0,1.9-0.4,2.6-1.1C32.1,16,32.5,14.9,32.4,13.8z
	 M58.4,5.5L47.9,30.2h-5.5l3.8-8.5L39.4,5.5h5.7L49,15.9l3.8-10.5H58.4z M59.2,13.8c0-1.6,0.3-3.1,1-4.5c0.6-1.2,1.5-2.3,2.7-3
	c1.1-0.7,2.4-1.1,3.8-1c1,0,2.1,0.2,3,0.7c0.9,0.4,1.6,1.1,2.1,1.9V0h5.1v22.2h-5.1v-2.4c-0.5,0.8-1.2,1.5-2.1,1.9
	c-1,0.5-2,0.7-3.1,0.7c-1.3,0-2.6-0.4-3.8-1.1c-1.1-0.7-2.1-1.8-2.7-3C59.5,16.9,59.2,15.4,59.2,13.8z M71.8,13.8
	c0.1-1.1-0.3-2.2-1.1-3c-0.7-0.7-1.6-1.1-2.6-1.1c-1,0-1.9,0.4-2.6,1.1c-0.7,0.8-1.1,1.9-1.1,3c-0.1,1.1,0.3,2.2,1.1,3
	c0.7,0.7,1.6,1.1,2.6,1.1c1,0,1.9-0.4,2.6-1.1C71.4,16,71.8,14.9,71.8,13.8z M96.4,13.6c0,0.5,0,1-0.1,1.5H84.7c0,0.9,0.4,1.7,1,2.4
	c0.6,0.5,1.4,0.8,2.2,0.8c1.1,0.1,2.2-0.6,2.7-1.6H96c-0.3,1.1-0.8,2.1-1.5,3c-0.7,0.9-1.7,1.6-2.7,2.1c-1.2,0.5-2.4,0.8-3.7,0.8
	c-1.5,0-3-0.3-4.4-1c-1.3-0.7-2.3-1.7-3-3c-0.7-1.4-1.1-3-1.1-4.6c0-1.6,0.3-3.2,1.1-4.6c0.7-1.3,1.7-2.3,3-3c1.4-0.7,2.9-1.1,4.4-1
	c1.5,0,3,0.3,4.3,1c1.2,0.7,2.3,1.7,3,2.9C96.1,10.5,96.4,12,96.4,13.6z M91.1,12.2c0-0.8-0.3-1.6-0.9-2.1c-0.6-0.5-1.4-0.8-2.3-0.8
	c-0.8,0-1.6,0.2-2.2,0.8c-0.6,0.5-1,1.3-1.1,2.1H91.1z M109.3,5.3c1.8-0.1,3.5,0.6,4.7,1.9c1.2,1.5,1.9,3.3,1.8,5.2v9.8h-5.1v-9.1
	c0.1-0.9-0.3-1.9-0.9-2.6c-0.6-0.6-1.5-1-2.3-0.9c-0.9,0-1.7,0.3-2.3,0.9c-0.6,0.7-0.9,1.7-0.9,2.6v9.1h-5.1V5.5h5.1v2.2
	c0.5-0.8,1.3-1.4,2.1-1.8C107.2,5.5,108.3,5.3,109.3,5.3z"/>
<g>
	<g>
		<path class="st1" d="M21,6.3L10.2,24.1h11.2v4H5.1v-3.7L16,6.6H5.4v-4H21V6.3z"/>
		<path class="st1" d="M31.8,27.3c-1.4-0.7-2.4-1.8-3.1-3.3s-1.1-3.1-1.1-5.1V2.5h4.2V19c0,1.7,0.4,3,1.3,3.9s2.1,1.4,3.6,1.4
			c1.6,0,2.8-0.5,3.7-1.4s1.3-2.2,1.3-3.9V2.5H46v16.3c0,2-0.4,3.7-1.1,5.1s-1.8,2.5-3.1,3.3s-3,1.1-5,1.1
			C34.9,28.4,33.2,28,31.8,27.3z"/>
		<path class="st1" d="M83,2.5h4.9v25.6h-3.9V8.6l0.2,1.1l-5.6,15.2h-3.4l-5.6-14.8l0.2-1.5v19.5h-3.9V2.5h4.9l6.2,17.1L83,2.5z"/>
		<path class="st1" d="M96.1,2.5h4.2v25.6h-4.2V2.5z M97.9,13.5h8.8c0.6,0,1.1-0.1,1.6-0.4s0.8-0.7,1-1.2s0.4-1.1,0.4-1.8
			c0-0.7-0.1-1.3-0.4-1.8s-0.6-0.9-1-1.2s-1-0.4-1.6-0.4h-8.8v-4h8.9c1.4,0,2.7,0.3,3.8,0.9s1.9,1.5,2.5,2.6S114,8.5,114,10
			c0,1.5-0.3,2.8-0.9,4s-1.5,2-2.5,2.6s-2.4,0.9-3.8,0.9h-8.9V13.5z M104,16.8l4.4-0.8l6.7,12.1h-5L104,16.8z"/>
	</g>
</g>
<text transform="matrix(1 0 0 1 43.9668 15.0751)" class="st1 st2 st3 st4">.</text>
</svg>
